<?xml version="1.0" encoding="utf-8"?>
<!-- Generator: Adobe Illustrator 27.4.0, SVG Export Plug-In . SVG Version: 6.00 Build 0)  -->
<svg version="1.1" id="Layer_1" xmlns="http://www.w3.org/2000/svg" xmlns:xlink="http://www.w3.org/1999/xlink" x="0px" y="0px"
	 viewBox="0 0 572.5 570" style="enable-background:new 0 0 572.5 570;" xml:space="preserve">
<style type="text/css">
	.st0{fill:#FFFFFF;}
	.st1{fill:#2B2B2B;}
</style>
<path class="st0" d="M172.9,75.3c-75-46-103.1,10.1-105,9c-12-7-38.7-1.1-40,20c-2,32,23,36,27,38c2.8,1.4,1,5.6,1,7
	c-69,60-64,159-39,232c47.6,138.9,209.8,223.2,360,175c162-52,237.4-243.1,172-385c-82-178-263-179-318-167c-22.9,5-12.9,39.3,6,36
	c155-27,248,75,278,148s21.1,134.3,4.2,180.4C473,494.3,369.7,520.6,351,525.3c-119,30-185-17-202-52c-8.6-17.7,9.7-19.3,18-19
	c3.1,0.1,14.2,31.8,29,23c37-22,72.5-67,80-88c5-14-11.8-18.1-14-16c-24,23-45.6,57.7-72,44c-20.4-10.6,14-69,21-101
	c1.3-6,0-10,0-10s-8.2,2.9-12,1c-10-5-25.9-11.5-36-14c-8-2-52,39-52,39s-5-13.2,7-61c-8-3.7-16-7.3-24-11c1.7-2,7.3-4.9,5-6
	c41,20,74.4,41.8,102,44c22.2,1.8,49-14,71-13c7.1,0.3,19,25.1,26,28c17,7,22.3-5.5,23-14c1-12-21-40.3-43-43c-41-5-60.6,8.5-70,4
	c-33-16-56.8-35.9-70-44c1.3-2.3,2.7-4.7,4-7c4.4-1.8,19-5,19-5c8,6,33,21,52,1c8.4-8.9,14-21-7-41C205,162.3,239,120.3,172.9,75.3
	L172.9,75.3z"/>
<path class="st1" d="M136.9,124.3c0,0-2-24-24-30c-50-16-63.6,57.5-26,94c33,32,114,9,98-46C169.9,110.3,136.9,124.3,136.9,124.3z"
	/>
<path class="st1" d="M58,106.3c-3-14-23-18-22,3c0.3,5.7,3,21,19,24L58,106.3z"/>
<path class="st1" d="M170.9,199.3c6.7-5.3,13.3-10.7,20-16c12-3,30.2,11.8,10,21C189.9,209.3,172.9,208.3,170.9,199.3z"/>
<path class="st0" d="M110.6,132c-2.7,4.4-7.7,6.6-12.2,5.1c-5.5-1.8-8.3-8.2-6.3-14.3c2-6.1,8.1-9.7,13.5-7.9c2.7,0.9,4.8,2.9,6,5.5
	c-2.3-0.1-4.6,1.6-5.5,4.2c-1,3.1,0.4,6.3,3.2,7.2C109.7,131.9,110.2,132,110.6,132z"/>
<path class="st0" d="M162.6,162c-2.7,4.4-7.7,6.6-12.2,5.1c-5.5-1.8-8.3-8.2-6.3-14.3s8.1-9.7,13.5-7.9c2.7,0.9,4.8,2.9,6,5.5
	c-2.3-0.1-4.6,1.6-5.5,4.2c-1,3.1,0.4,6.3,3.1,7.2C161.7,161.9,162.1,162,162.6,162L162.6,162z"/>
<ellipse transform="matrix(0.9697 -0.2441 0.2441 0.9697 -35.0808 31.6017)" class="st0" cx="110" cy="157.3" rx="2" ry="6"/>
<ellipse transform="matrix(0.9289 -0.3704 0.3704 0.9289 -52.2042 56.9248)" class="st0" cx="122.1" cy="164.4" rx="6.2" ry="2.1"/>
</svg>
